<?xml version="1.0" standalone="no"?>
<!DOCTYPE svg PUBLIC "-//W3C//DTD SVG 20010904//EN"
 "http://www.w3.org/TR/2001/REC-SVG-20010904/DTD/svg10.dtd">
<svg version="1.0" xmlns="http://www.w3.org/2000/svg"
 width="32.000000pt" height="32.000000pt" viewBox="0 0 32.000000 32.000000"
 preserveAspectRatio="xMidYMid meet">

<g transform="translate(0.000000,32.000000) scale(0.100000,-0.100000)"
fill="#fff" stroke="none">
<path d="M170 283 c-8 -3 -36 -26 -62 -51 -46 -44 -48 -49 -48 -102 0 -31 -5
-61 -12 -68 -6 -6 -9 -15 -5 -19 4 -4 13 -1 19 5 7 7 37 12 68 12 54 0 58 2
105 50 43 43 50 56 50 90 0 26 -7 47 -20 60 -21 21 -70 33 -95 23z m80 -33
c22 -22 26 -60 10 -91 -8 -15 -21 -19 -57 -19 l-46 0 23 25 c13 14 20 28 16
32 -3 4 -31 -18 -61 -47 l-55 -54 0 46 c0 41 4 49 45 87 51 47 92 54 125 21z
m-45 -150 c-13 -14 -31 -20 -63 -20 -44 0 -45 0 -27 20 13 14 31 20 63 20 44
0 45 0 27 -20z"/>
</g>
</svg>
