<svg xmlns="http://www.w3.org/2000/svg" role="img" width="34" height="34" viewBox="0 0 40 40" overflow="visible"><title>Creative Bloq</title><path fill="#E94E1B" d="M34 37.3H4.8C.3 37.3.2 33 .2 32.8V4.7C.2.3 4.5.3 4.7.2h28c4.4 0 4.4 4.3 4.4 4.5v29.5l2.4 2.4-3.1 3-2.3-2.3z"></path><path fill="#E3441B" d="M32.7.5c4.1 0 4.2 4 4.2 4.2v29.6l.1.2 2.2 2-2.8 2.8-2-2.1-.2-.2H4.7C.6 37 .5 33 .5 32.8V4.7C.5.6 4.5.5 4.7.5h28m0-.5h-28S0 0 0 4.7v28.1s0 4.7 4.7 4.7H34l2.4 2.5 3.5-3.4-2.5-2.5V4.7s0-4.7-4.7-4.7z"></path><path fill="#FFF" d="M18.4 25.9V20H14v5.3c0 .5-.2.8-.8.8h-.5c-.6 0-.8-.3-.8-.8V12c0-.5.2-.7.8-.7h.5c.5 0 .8.3.8.7v4.7h4.3v-5.1c0-2.8-1.3-4.1-4-4.1h-2.7c-2.7 0-4.1 1.3-4.1 4V26c0 2.7 1.4 4 4.1 4h2.7c2.7 0 4.1-1.3 4.1-4"></path><path fill="none" stroke="#DD4531" stroke-width=".5" stroke-miterlimit="10" d="M18.4 25.9V20H14v5.3c0 .5-.2.8-.8.8h-.5c-.6 0-.8-.3-.8-.8V12c0-.5.2-.7.8-.7h.5c.5 0 .8.3.8.8v4.6h4.3v-5.1c0-2.7-1.3-4.1-4-4.1h-2.7c-2.7 0-4.1 1.4-4.1 4V26c0 2.7 1.4 4 4.1 4h2.7c2.7 0 4.1-1.3 4.1-4"></path><path fill="#FFF" d="M26.3 25.3c0 .5-.3.8-.8.8h-1.1v-5.7h1c.6 0 .9.3.9.8v4zm0-9.4c0 .5-.3.8-.9.8h-1v-5.3h1c.6 0 .8.3.8.8v3.7zm4.4 9.8v-4.5c0-1.6-.6-2.5-1.9-2.9C30 18 30.7 17 30.7 15v-3.3c0-2.8-1.4-4.2-4.2-4.2H20V30h6.7c2.8 0 4.1-1.4 4.1-4.2"></path><path fill="none" stroke="#DD4531" stroke-width=".5" stroke-miterlimit="10" d="M26.3 25.3c0 .5-.3.8-.8.8h-1.1v-5.7h1c.6 0 .9.3.9.8v4zm0-9.4c0 .5-.3.8-.9.8h-1v-5.3h1c.6 0 .8.3.8.8v3.7zm4.4 9.8v-4.5c0-1.6-.6-2.5-1.9-2.9C30 18 30.7 17 30.7 15v-3.3c0-2.8-1.4-4.2-4.2-4.2H20V30h6.7c2.8 0 4.1-1.4 4.1-4.2"></path></svg>